<?xml version="1.0" encoding="UTF-8"?>
<svg width="32px" height="32px" viewBox="0 0 32 32" version="1.1" xmlns="http://www.w3.org/2000/svg" xmlns:xlink="http://www.w3.org/1999/xlink">
    <title>walletconnect-logo</title>
    <g id="Page-1" stroke="none" stroke-width="1" fill="none" fill-rule="evenodd">
        <g id="walletconnect-logo" transform="translate(-4.000000, -4.000000)" fill-rule="nonzero">
            <g id="Group" transform="translate(4.000000, 4.000000)">
                <path d="M6.652,12.2c2.4,-2.3 6.3,-2.3 8.7,0l0.3,0.3c0.1,0.1 0.1,0.3 0,0.4l-1,1c-0.1,0.1 -0.2,0.1 -0.3,0.1 -0.1,0 -0.2,-0.1 -0.3,-0.1l0,0c-1.3,-1.2 -3.4,-1.2 -4.7,0l0,0c-0.1,0.1 -0.2,0.1 -0.3,0.1 -0.1,0 -0.2,-0.1 -0.3,-0.1l-1,-1c-0.1,-0.1 -0.1,-0.3 0,-0.4l0.3,-0.3Zm10.3,2.2l0.9,0.9c0.1,0.1 0.1,0.3 0,0.4l-4,3.9c-0.1,0.1 -0.3,0.2 -0.4,0.2 -0.2,0 -0.3,-0.1 -0.4,-0.2l-2.8,-2.8c-0.1,-0.1 -0.1,-0.1 -0.1,-0.2 0,-0.1 0,-0.2 0.1,-0.2l0.6,-0.6c0.1,-0.1 0.2,-0.1 0.3,-0.1 0.1,0 0.2,0.1 0.3,0.1l1.9,1.9c0.1,0.1 0.3,0.1 0.4,0l3.5,-3.4c0.1,-0.1 0.3,-0.1 0.4,0l0.4,0.4Z" id="Shape" fill="#3B99FC"></path>
                <path d="M0,16c0,-8.8 7.2,-16 16,-16 8.8,0 16,7.2 16,16 0,8.8 -7.2,16 -16,16 -8.8,0 -16,-7.2 -16,-16Z" id="Shape" fill="#3B99FC"></path>
            </g>
        </g>
    </g>
</svg>
